<svg xmlns="http://www.w3.org/2000/svg" width="48" height="48"><g transform="translate(0 -1004.362)"><circle cx="24" cy="1028.362" r="24" fill="#1d67b1"/><path fill="#fff" style="line-height:125%;text-indent:0;text-align:start;text-decoration-line:none;text-decoration-style:solid;text-decoration-color:#000;text-transform:none;block-progression:tb;isolation:auto;mix-blend-mode:normal" d="M14.406 1013.362a.5.5 0 0 0-.406.5v7.344l-3.813 3.062a.5.5 0 0 0-.187.5.5.5 0 0 0 0 .094v16a.5.5 0 0 0 .5.5h27a.5.5 0 0 0 .5-.5v-16a.5.5 0 0 0 0-.094.5.5 0 0 0-.188-.5L34 1021.206v-1.313a.5.5 0 0 0-.5-.5.5.5 0 0 0-.5.5V1021.237a.5.5 0 0 0 0 .062v.03a.5.5 0 0 0 0 .25v5.782l-9 6-9-5.969v-5.875a.5.5 0 0 0 0-.187v-6.969h12.5a.5.5 0 1 0 0-1h-13a.5.5 0 0 0-.094 0zm14.938 0a.5.5 0 0 0-.344.5v4a.5.5 0 0 0 .5.5h4a.5.5 0 0 0 .344-.875l-4-4a.5.5 0 0 0-.5-.125zm.656 1.687 2.313 2.313H30v-2.313zm-11.75 3.813v1h1.281l1.5 6.187a1.48 1.48 0 0 0-.812 1.313c0 .822.678 1.5 1.5 1.5s1.5-.678 1.5-1.5c0-.171-.04-.346-.094-.5h1.125c-.053.153-.062.33-.062.5 0 .822.677 1.5 1.5 1.5.822 0 1.468-.678 1.468-1.5 0-.8-.615-1.464-1.406-1.5H22l-.25-1h4.688a.5.5 0 0 0 .5-.344l1.28-4a.5.5 0 0 0-.468-.656h-7.187l-.157-.625a.5.5 0 0 0-.437-.375H18.25zm2.563 2h6.25l-.313 1h-3.125v1h2.781l-.312 1H21.53l-.718-3zM14 1022.456v4.25l-2.875-1.907 2.875-2.343zm20 .03 2.875 2.313-2.875 1.906v-4.218zm-23 3.376 12.719 8.5a.5.5 0 0 0 .562 0l12.719-8.5v14.5H11v-14.5zm10.719 1c.281 0 .5.218.5.5 0 .282-.219.5-.5.5a.493.493 0 0 1-.5-.5c0-.282.218-.5.5-.5zm3.968 0c.282 0 .47.218.47.5 0 .282-.188.5-.47.5a.493.493 0 0 1-.5-.5c0-.282.22-.5.5-.5z" color="#000" font-family="sans-serif" font-weight="400" letter-spacing="0" overflow="visible" word-spacing="0"/></g></svg>